<svg xmlns="http://www.w3.org/2000/svg" width="736.49" height="390.5" viewBox="0 0 736.49 390.5">
	<style type="text/css">
		.st1{fill:#5f6767;}
		.st0{fill:#000000;}
	</style>
	<path class="st0" d="M642.69,352.89C642.69,362.23 637.05,369.81 630.1,369.81L106.38,369.81C99.43,369.81 93.8,362.23 93.8,352.89L93.8,16.91C93.8,7.57 99.43,0 106.38,0L630.1,0C637.05,0 642.69,7.57 642.69,16.91Z"/>
	<path class="st1" d="M0.31,374.91C0.31,374.91 -4.25,383.41 28.19,390.5L707.46,390.5C707.46,390.5 730.18,389.04 736.17,378.33L736.21,372.47Z"/>
	<path class="st1" d="M702.26,368.77C702.26,369.5 701.77,370.1 701.17,370.1L676.13,370.1C675.52,370.1 675.04,369.5 675.04,368.77C675.04,368.03 675.52,367.44 676.13,367.44L701.17,367.44C701.77,367.44 702.26,368.03 702.26,368.77"/>
</svg>